<mxfile host="Electron" agent="Mozilla/5.0 (Windows NT 10.0; Win64; x64) AppleWebKit/537.36 (KHTML, like Gecko) draw.io/28.2.5 Chrome/138.0.7204.251 Electron/37.6.1 Safari/537.36" version="28.2.5">
  <diagram name="Page-1" id="r1t1kA-hZoZtvwR5Ba-t">
    <mxGraphModel dx="1426" dy="841" grid="1" gridSize="10" guides="1" tooltips="1" connect="1" arrows="1" fold="1" page="1" pageScale="1" pageWidth="850" pageHeight="1100" math="0" shadow="0">
      <root>
        <mxCell id="0" />
        <mxCell id="1" parent="0" />
        <mxCell id="tFL3Mt2MvYfrvCpxlpR1-3" value="" style="edgeStyle=orthogonalEdgeStyle;rounded=0;orthogonalLoop=1;jettySize=auto;html=1;" edge="1" parent="1" source="tFL3Mt2MvYfrvCpxlpR1-1" target="tFL3Mt2MvYfrvCpxlpR1-2">
          <mxGeometry relative="1" as="geometry" />
        </mxCell>
        <mxCell id="tFL3Mt2MvYfrvCpxlpR1-1" value="Actor" style="shape=umlActor;verticalLabelPosition=bottom;verticalAlign=top;html=1;outlineConnect=0;" vertex="1" parent="1">
          <mxGeometry x="220" y="70" width="30" height="60" as="geometry" />
        </mxCell>
        <mxCell id="tFL3Mt2MvYfrvCpxlpR1-6" value="" style="edgeStyle=orthogonalEdgeStyle;rounded=0;orthogonalLoop=1;jettySize=auto;html=1;exitX=0.25;exitY=1;exitDx=0;exitDy=0;" edge="1" parent="1" source="tFL3Mt2MvYfrvCpxlpR1-2" target="tFL3Mt2MvYfrvCpxlpR1-5">
          <mxGeometry relative="1" as="geometry" />
        </mxCell>
        <mxCell id="tFL3Mt2MvYfrvCpxlpR1-12" value="" style="edgeStyle=orthogonalEdgeStyle;rounded=0;orthogonalLoop=1;jettySize=auto;html=1;exitX=0.75;exitY=1;exitDx=0;exitDy=0;" edge="1" parent="1" source="tFL3Mt2MvYfrvCpxlpR1-2" target="tFL3Mt2MvYfrvCpxlpR1-8">
          <mxGeometry relative="1" as="geometry" />
        </mxCell>
        <mxCell id="tFL3Mt2MvYfrvCpxlpR1-2" value="UI" style="rounded=0;whiteSpace=wrap;html=1;" vertex="1" parent="1">
          <mxGeometry x="175" y="210" width="120" height="60" as="geometry" />
        </mxCell>
        <mxCell id="tFL3Mt2MvYfrvCpxlpR1-4" value="Dictionary" style="shape=cylinder3;whiteSpace=wrap;html=1;boundedLbl=1;backgroundOutline=1;size=15;" vertex="1" parent="1">
          <mxGeometry x="110" y="460" width="60" height="80" as="geometry" />
        </mxCell>
        <mxCell id="tFL3Mt2MvYfrvCpxlpR1-7" value="" style="edgeStyle=orthogonalEdgeStyle;rounded=0;orthogonalLoop=1;jettySize=auto;html=1;" edge="1" parent="1" source="tFL3Mt2MvYfrvCpxlpR1-5" target="tFL3Mt2MvYfrvCpxlpR1-4">
          <mxGeometry relative="1" as="geometry" />
        </mxCell>
        <mxCell id="tFL3Mt2MvYfrvCpxlpR1-5" value="Dictionary Service" style="rounded=0;whiteSpace=wrap;html=1;" vertex="1" parent="1">
          <mxGeometry x="80" y="330" width="120" height="60" as="geometry" />
        </mxCell>
        <mxCell id="tFL3Mt2MvYfrvCpxlpR1-10" value="" style="edgeStyle=orthogonalEdgeStyle;rounded=0;orthogonalLoop=1;jettySize=auto;html=1;" edge="1" parent="1" source="tFL3Mt2MvYfrvCpxlpR1-8" target="tFL3Mt2MvYfrvCpxlpR1-9">
          <mxGeometry relative="1" as="geometry" />
        </mxCell>
        <mxCell id="tFL3Mt2MvYfrvCpxlpR1-13" value="" style="edgeStyle=orthogonalEdgeStyle;rounded=0;orthogonalLoop=1;jettySize=auto;html=1;" edge="1" parent="1" source="tFL3Mt2MvYfrvCpxlpR1-8" target="tFL3Mt2MvYfrvCpxlpR1-5">
          <mxGeometry relative="1" as="geometry" />
        </mxCell>
        <mxCell id="tFL3Mt2MvYfrvCpxlpR1-8" value="Practice Service" style="rounded=0;whiteSpace=wrap;html=1;" vertex="1" parent="1">
          <mxGeometry x="270" y="330" width="120" height="60" as="geometry" />
        </mxCell>
        <mxCell id="tFL3Mt2MvYfrvCpxlpR1-11" value="" style="edgeStyle=orthogonalEdgeStyle;rounded=0;orthogonalLoop=1;jettySize=auto;html=1;" edge="1" parent="1" source="tFL3Mt2MvYfrvCpxlpR1-9" target="tFL3Mt2MvYfrvCpxlpR1-8">
          <mxGeometry relative="1" as="geometry" />
        </mxCell>
        <mxCell id="tFL3Mt2MvYfrvCpxlpR1-9" value="" style="image;aspect=fixed;html=1;points=[];align=center;fontSize=12;image=img/lib/azure2/ai_machine_learning/Azure_OpenAI.svg;" vertex="1" parent="1">
          <mxGeometry x="296" y="466" width="68" height="68" as="geometry" />
        </mxCell>
      </root>
    </mxGraphModel>
  </diagram>
</mxfile>
